<svg version="1.1" id="Layer_1" xmlns="http://www.w3.org/2000/svg" xmlns:xlink="http://www.w3.org/1999/xlink" x="0px" y="0px"
	 width="100%" viewBox="0 0 1024 1024" enable-background="new 0 0 1024 1024" xml:space="preserve">
<path fill="#000000" opacity="1.000000" stroke="none" 
	d="
M481.611633,713.702148 
	C482.885345,698.520813 484.191254,683.799561 485.377228,669.068665 
	C486.217560,658.631042 486.903290,648.180969 487.644653,637.735474 
	C488.938782,619.502563 490.281281,601.272766 491.479492,583.033508 
	C491.904327,576.566284 492.176788,570.080872 492.494537,563.613647 
	C493.311432,546.986938 493.286530,530.320984 493.840576,513.678772 
	C494.459656,495.082977 486.880035,479.266937 476.911224,464.487610 
	C465.797913,448.011566 451.341003,434.736450 434.961487,423.507721 
	C431.875580,421.392242 428.917328,421.979248 425.523712,422.173615 
	C390.252838,424.193573 358.427521,416.144135 333.220123,389.570190 
	C321.005432,376.693268 311.937592,361.943176 306.485260,344.970917 
	C305.109497,340.688446 305.874939,338.647064 310.504211,337.576508 
	C346.805786,329.181488 380.272766,334.781281 409.973511,357.951355 
	C424.316681,369.140686 433.201263,384.359528 439.120697,401.338135 
	C440.364594,404.905945 442.314453,407.280670 445.656555,408.976562 
	C464.026398,418.298187 481.298401,429.193665 495.461670,444.441956 
	C495.776245,444.780670 496.318237,444.908142 496.954285,445.237915 
	C499.373535,443.635834 498.695892,441.098267 498.589783,438.954620 
	C497.570740,418.372223 493.817200,398.441498 484.636566,379.748169 
	C477.873535,365.977509 470.834473,352.395142 461.934265,339.838257 
	C459.840210,336.883911 457.461914,335.744049 453.792908,335.179901 
	C423.768188,330.563049 399.496979,316.710358 383.861298,289.874847 
	C374.358185,273.564636 368.757812,255.927261 366.910828,237.091568 
	C366.535889,233.267868 368.231049,232.771988 371.455627,232.590836 
	C409.959045,230.427719 459.836426,257.210571 472.123291,309.968628 
	C473.248993,314.802277 474.235260,319.668396 474.463531,324.698822 
	C474.673950,329.335693 475.936584,333.560333 479.399353,337.302002 
	C486.304962,344.763702 491.905243,353.286713 497.458099,361.802856 
	C498.431793,363.296173 499.150879,365.083069 501.126465,365.845367 
	C503.261230,364.770660 502.622620,362.715912 502.632935,361.048309 
	C502.761078,340.384064 502.786560,319.719147 502.930359,299.055023 
	C502.950287,296.194580 501.955292,294.027283 500.154846,291.855164 
	C487.926788,277.102814 479.154388,260.588654 476.360199,241.463821 
	C471.087982,205.377487 482.223022,175.269104 510.009064,151.430298 
	C512.399841,149.379135 514.249329,149.521515 516.528870,151.487747 
	C535.279358,167.660782 547.148376,187.582718 550.429932,212.408157 
	C554.376526,242.264801 545.754944,268.294281 526.841858,291.234222 
	C524.375916,294.225281 523.129211,297.225220 523.163452,301.164764 
	C523.333191,320.661407 523.251404,340.160095 523.323792,359.657867 
	C523.330261,361.399933 522.759766,363.341492 524.268433,364.908966 
	C526.767334,364.898834 527.471924,362.763672 528.586548,361.242065 
	C535.376831,351.972168 542.013916,342.577515 549.576904,333.913086 
	C553.343933,329.597382 551.706909,324.299713 552.397217,319.562988 
	C558.904358,274.909515 592.474243,240.642441 637.030701,233.453110 
	C642.705933,232.537399 648.312073,232.889450 653.950317,232.676392 
	C655.242432,232.627548 656.622620,232.417099 658.175659,233.571594 
	C658.955505,241.515747 657.321960,249.480392 655.277954,257.302643 
	C650.152344,276.918304 642.095215,295.092438 627.099365,309.322845 
	C611.239563,324.373077 592.153442,332.740814 570.512756,335.340759 
	C568.194275,335.619293 566.429810,336.347839 565.087891,338.325897 
	C551.565857,358.258179 539.653320,379.026855 532.646179,402.235565 
	C529.222046,413.577057 528.420776,425.404083 527.465271,437.140076 
	C527.226746,440.069519 525.585693,443.195404 527.117004,446.127380 
	C529.811584,446.595032 530.861511,444.841553 532.031067,443.569214 
	C544.847595,429.626495 560.316956,419.286682 577.087463,410.865906 
	C582.368042,408.214417 585.653259,404.707794 587.688660,399.141602 
	C601.170532,362.273560 628.814453,342.763824 666.367126,335.575592 
	C682.672302,332.454468 698.741577,333.938416 714.818420,337.422363 
	C719.671143,338.473969 720.701416,340.485626 719.098755,344.908386 
	C704.521729,385.135742 677.943970,411.940216 634.900574,420.361176 
	C622.239746,422.838135 609.500305,423.254883 596.698669,421.485443 
	C594.535522,421.186432 592.429688,421.315491 590.530151,422.783051 
	C568.402527,439.879211 548.560608,458.872894 538.060364,485.665009 
	C534.459839,494.851837 532.152588,504.165955 532.089661,514.244934 
	C531.934631,539.076599 533.605957,563.835144 534.547913,588.613220 
	C535.475403,613.008850 537.490784,637.373291 539.465210,661.716064 
	C541.491821,686.701172 543.992676,711.648560 546.393005,736.602173 
	C547.612061,749.274475 554.323975,759.331055 562.163330,768.820374 
	C564.005493,771.050232 566.263489,773.088074 567.013062,776.161499 
	C564.664368,777.696472 562.277466,777.224121 560.033020,777.228210 
	C517.202454,777.306396 474.371460,777.265747 431.541687,777.475037 
	C427.165436,777.496399 425.332245,775.660095 423.925415,771.987671 
	C418.210510,757.069031 412.204407,742.260986 406.577179,727.310059 
	C404.949371,722.985046 402.796051,721.104431 397.863983,721.263977 
	C381.050446,721.807739 364.222504,721.410889 347.391571,721.830505 
	C328.916931,722.291077 310.409851,721.717834 291.924225,721.283569 
	C287.391998,721.177124 284.852448,722.502441 283.356262,726.867554 
	C278.062012,742.313599 269.885925,756.581848 264.674500,772.072449 
	C263.829987,774.582703 262.754272,776.442749 259.503845,776.422729 
	C241.505386,776.311707 223.505844,776.378845 205.506699,776.358215 
	C204.713333,776.357300 203.920273,776.094849 203.218033,775.970337 
	C201.948181,773.366089 202.935638,771.214233 203.788559,769.064941 
	C219.139313,730.381409 234.644196,691.758240 249.811874,653.002991 
	C266.552734,610.228088 282.954163,567.320435 299.575958,524.498718 
	C303.430389,514.568787 307.642212,504.777924 311.544342,494.865875 
	C312.426849,492.624237 313.734467,491.844910 316.036682,491.845215 
	C334.535522,491.847443 353.035126,491.851166 371.532532,491.662750 
	C375.028076,491.627136 376.422668,493.190094 377.607147,496.194916 
	C392.439697,533.822632 407.415619,571.393860 422.300842,609.000854 
	C439.082947,651.400208 455.801270,693.824707 472.592621,736.220337 
	C473.304504,738.017761 473.676270,740.113403 476.039032,741.593628 
	C479.927521,738.559448 478.800995,733.843018 479.553528,729.934143 
	C480.554016,724.737183 480.941650,719.422302 481.611633,713.702148 
M373.539703,639.851929 
	C364.504944,618.193115 356.741241,596.050110 348.456940,574.105225 
	C347.676361,572.037354 347.382935,569.459778 343.741852,568.515991 
	C330.270599,601.450134 316.782288,634.426025 302.988586,668.148438 
	C330.539825,668.148438 357.230957,668.148438 384.510529,668.148438 
	C381.811737,658.347778 377.190887,649.689392 373.539703,639.851929 
z"/>
<path fill="#000000" opacity="1.000000" stroke="none" 
	d="
M660.066895,553.072388 
	C638.168457,567.819641 622.753540,587.263672 617.440613,612.854492 
	C609.836853,649.479553 619.388000,681.429382 647.630005,706.886475 
	C661.351929,719.255188 677.523376,726.984741 695.807495,729.282532 
	C712.009277,731.318604 727.592651,727.605408 742.440063,721.110352 
	C755.722046,715.299927 767.495605,707.240662 776.914734,696.084778 
	C779.140930,693.448120 781.057617,693.410095 783.702698,695.285278 
	C796.202026,704.146118 808.707092,713.001648 821.342346,721.666260 
	C824.639893,723.927551 824.309082,725.691040 821.990417,728.395874 
	C800.262085,753.742920 774.013977,772.216919 741.143494,779.647339 
	C686.600098,791.977051 638.323792,779.500793 598.402771,739.925354 
	C576.024292,717.740662 562.879639,690.252441 559.530457,658.616394 
	C555.888672,624.215576 558.664429,590.733093 576.458557,560.077393 
	C599.756470,519.939575 633.732910,493.681244 680.081848,487.078705 
	C736.836731,478.993835 784.114380,498.365936 821.872986,541.355042 
	C824.664001,544.532715 824.331116,546.485657 821.001038,548.971069 
	C808.579163,558.242432 795.757446,566.924683 782.962158,575.659729 
	C779.287231,578.168579 777.337708,577.909058 774.464600,574.488098 
	C761.381042,558.909729 745.117920,547.945801 725.378845,542.612732 
	C702.239868,536.361023 680.614380,540.433350 660.066895,553.072388 
z"/>
</svg>